HIERARCHY
ROOT Hips
{
    OFFSET 0.000000 0.000000 0.000000
    CHANNELS 6 Xposition Yposition Zposition Zrotation Xrotation Yrotation
    JOINT Spine
    {
        OFFSET -0.000000 14.517291 0.000000
        CHANNELS 3 Zrotation Xrotation Yrotation
        JOINT Spine1
        {
            OFFSET -0.000000 37.558300 0.000000
            CHANNELS 3 Zrotation Xrotation Yrotation
            JOINT Neck
            {
                OFFSET -0.000000 37.404057 3.400369
                CHANNELS 3 Zrotation Xrotation Yrotation
                JOINT Head
                {
                    OFFSET -0.000000 24.785618 -3.540803
                    CHANNELS 3 Zrotation Xrotation Yrotation
                    End Site
                    {
                        OFFSET -0.000000 35.408028 0.000000
                    }
                }
            }
            JOINT LeftShoulder
            {
                OFFSET 6.992933 33.973492 -0.192664
                CHANNELS 3 Zrotation Xrotation Yrotation
                JOINT LeftArm
                {
                    OFFSET 21.527611 0.000000 0.000000
                    CHANNELS 3 Zrotation Xrotation Yrotation
                    JOINT LeftForeArm
                    {
                        OFFSET 56.353916 0.000000 0.000000
                        CHANNELS 3 Zrotation Xrotation Yrotation
                        JOINT LeftHand
                        {
                            OFFSET 47.774071 0.000000 0.000000
                            CHANNELS 3 Zrotation Xrotation Yrotation
                            End Site
                            {
                                OFFSET 26.556021 0.000000 0.000000
                            }
                        }
                    }
                }
            }
            JOINT RightShoulder
            {
                OFFSET -7.065357 33.973492 -0.192664
                CHANNELS 3 Zrotation Xrotation Yrotation
                JOINT RightArm
                {
                    OFFSET -21.527611 0.000000 0.000000
                    CHANNELS 3 Zrotation Xrotation Yrotation
                    JOINT RightForeArm
                    {
                        OFFSET -56.353916 0.000000 0.000000
                        CHANNELS 3 Zrotation Xrotation Yrotation
                        JOINT RightHand
                        {
                            OFFSET -47.774071 0.000000 0.000000
                            CHANNELS 3 Zrotation Xrotation Yrotation
                            End Site
                            {
                                OFFSET -26.556021 0.000000 0.000000
                            }
                        }
                    }
                }
            }
        }
    }
    JOINT LeftUpLeg
    {
        OFFSET 17.704014 0.000000 0.000000
        CHANNELS 3 Zrotation Xrotation Yrotation
        JOINT LeftLeg
        {
            OFFSET -0.000000 -81.181816 0.000000
            CHANNELS 3 Zrotation Xrotation Yrotation
            JOINT LeftFoot
            {
                OFFSET -0.000000 -62.821102 0.000000
                CHANNELS 3 Zrotation Xrotation Yrotation
                JOINT LeftToeBase
                {
                    OFFSET -0.000000 -11.507608 26.556021
                    CHANNELS 3 Zrotation Xrotation Yrotation
                    End Site
                    {
                        OFFSET -0.000000 0.000000 7.081605
                    }
                }
            }
        }
    }
    JOINT RightUpLeg
    {
        OFFSET -17.704014 0.000000 0.000000
        CHANNELS 3 Zrotation Xrotation Yrotation
        JOINT RightLeg
        {
            OFFSET -0.000000 -81.181816 0.000000
            CHANNELS 3 Zrotation Xrotation Yrotation
            JOINT RightFoot
            {
                OFFSET -0.000000 -62.821102 0.000000
                CHANNELS 3 Zrotation Xrotation Yrotation
                JOINT RightToeBase
                {
                    OFFSET -0.000000 -11.507608 26.556021
                    CHANNELS 3 Zrotation Xrotation Yrotation
                    End Site
                    {
                        OFFSET -0.000000 0.000000 7.081605
                    }
                }
            }
        }
    }
}
MOTION
Frames:    6
Frame Time:    0.008333
34.386768    154.566483    -102.151176    -0.623199    -12.641136    20.915613    0.841175    -1.659359    -3.269767    -7.173168    -0.277040    -1.111377    11.884061    0.310231    0.843013    1.397001    -0.227108    -0.660699    5.930246    -2.974831    -16.502962    -25.769695    -32.615368    -35.428711    -24.685818    -45.781612    -100.693138    -60.532089    -41.524277    -56.129009    -11.375687    1.597244    -7.132839    14.589206    17.724859    16.956938    15.707240    13.430813    -0.574862    24.577671    17.162592    17.262318    9.839214    10.792594    5.033302    -12.935616    34.517944    -14.541692    15.493083    -30.898647    48.637733    0.000000    0.000000    0.000000    -7.940780    -19.864397    -1.052487    9.841786    23.373299    -10.271024    3.164838    16.678997    -10.842560    0.000000    0.000000    0.000000    
34.223156    154.663391    -102.101585    -0.653956    -12.278522    20.909388    0.886052    -1.520476    -3.243210    -7.118679    -0.283054    -1.102627    11.940320    0.396053    0.869908    1.323812    -0.275698    -0.641756    5.958838    -2.966111    -16.512287    -25.783962    -32.646622    -35.339790    -24.673273    -45.718632    -100.684792    -60.530270    -41.466293    -56.088497    -11.407179    1.562085    -7.117210    14.546192    17.973034    16.782658    15.615273    13.366236    -0.219025    24.504313    17.008581    17.110342    9.777515    10.539799    5.039096    -12.905087    34.248318    -14.468195    15.250747    -30.786228    48.489349    0.000000    0.000000    0.000000    -8.017525    -20.163092    -1.172835    9.876578    23.277145    -10.312319    3.056898    16.764132    -10.769761    0.000000    0.000000    0.000000    
34.050400    154.757614    -102.042023    -0.689292    -11.943855    20.902925    0.948141    -1.343963    -3.234358    -7.080991    -0.295331    -1.100120    11.945045    0.404183    0.912533    1.366808    -0.231685    -0.591580    6.045778    -3.008257    -16.467211    -26.119368    -33.043129    -35.392899    -24.892321    -45.126781    -100.654724    -60.241486    -41.382774    -55.816467    -11.398561    1.564149    -7.067474    14.569901    18.100500    16.705528    15.480100    13.316453    -0.178999    24.439331    16.962292    17.194746    9.735980    10.303039    5.086725    -12.839506    34.013153    -14.505566    15.053514    -30.653486    48.406219    0.000000    0.000000    0.000000    -8.079775    -20.435505    -1.295054    9.919334    23.176687    -10.415320    2.925039    16.860092    -10.633553    0.000000    0.000000    0.000000    
33.877068    154.856720    -101.983322    -0.730862    -11.574652    20.900930    1.016610    -1.239265    -3.220676    -7.064615    -0.262755    -1.093494    11.995795    0.430893    0.952876    1.314645    -0.249778    -0.561474    6.059584    -3.034467    -16.471722    -26.017977    -32.910854    -35.239796    -24.779371    -45.325668    -100.690880    -60.398544    -41.438782    -55.758286    -11.390662    1.592746    -7.048066    14.587913    18.113195    16.673704    15.433619    13.309303    -0.179184    24.271996    16.947908    17.280439    9.681870    10.023055    5.108545    -12.777248    33.786495    -14.517204    14.818306    -30.538403    48.321136    0.000000    0.000000    0.000000    -8.149657    -20.746681    -1.481960    9.929898    23.093315    -10.494118    2.798073    16.964643    -10.468572    0.000000    0.000000    0.000000    
33.704674    154.957886    -101.933411    -0.785543    -11.201940    20.884439    1.094065    -1.084172    -3.196938    -7.044265    -0.311251    -1.088275    12.028729    0.447805    1.007229    1.311402    -0.260208    -0.508295    6.065485    -3.034234    -16.451704    -25.842186    -32.570480    -35.096073    -24.645489    -45.737816    -100.815376    -60.592567    -41.601604    -55.889549    -11.378589    1.621063    -7.028665    14.610941    18.249722    16.611082    15.290067    13.220170    -0.133034    24.166821    16.876858    17.465034    9.634248    9.729366    5.118534    -12.731506    33.566822    -14.489188    14.573146    -30.430082    48.234474    0.000000    0.000000    0.000000    -8.210836    -21.077822    -1.737535    9.918608    23.032007    -10.481830    2.691533    17.091763    -10.325273    0.000000    0.000000    0.000000    
33.522743    155.061508    -101.872543    -0.841448    -10.820738    20.878990    1.129831    -0.926704    -3.188797    -6.952044    -0.375484    -1.088782    11.994492    0.430764    1.062790    1.343195    -0.242437    -0.442888    6.032721    -3.030394    -16.377880    -25.831148    -32.484524    -35.073795    -24.579777    -45.802261    -100.837349    -60.588757    -41.619087    -55.883446    -11.433661    1.635244    -7.041728    14.644189    18.357403    16.571299    15.212483    13.146303    -0.064150    24.010176    16.793165    17.570044    9.597455    9.425670    5.114923    -12.696204    33.353500    -14.469391    14.339723    -30.304134    48.151283    0.000000    0.000000    0.000000    -8.272588    -21.412876    -2.004731    9.895740    22.968708    -10.487854    2.566523    17.224266    -10.144292    0.000000    0.000000    0.000000    
